<svg width="1400" height="940" viewBox="0 0 1400 940" xmlns="http://www.w3.org/2000/svg" role="img">
<title>ML Research Assistant Architecture — corrected with scope guard, reranker, and calibrated threshold routing</title>
<desc>Six-layer architecture diagram showing the user interface, scope guard, agent orchestration, retrieval and reranking, threshold-based routing, and fallback/final response layers, with an accurate technology stack.</desc>
<defs>
  <marker id="arrowD" viewBox="0 0 10 10" refX="8" refY="5" markerWidth="6" markerHeight="6" orient="auto-start-reverse">
    <path d="M2 1L8 5L2 9" fill="none" stroke="#7FA8D9" stroke-width="1.6" stroke-linecap="round" stroke-linejoin="round"/>
  </marker>
</defs>

<rect x="0" y="0" width="1400" height="940" fill="#0A1830"/>

<text x="700" y="55" font-family="Arial, sans-serif" font-size="32" font-weight="800" text-anchor="middle" fill="#4FC3F7">ML Research Assistant Architecture</text>
<text x="700" y="85" font-family="Arial, sans-serif" font-size="15" text-anchor="middle" fill="#93A9C8">Multi-Agent RAG Pipeline with Deterministic Routing &amp; Calibrated Confidence</text>

<!-- ===== ROW BANDS ===== -->
<g font-family="Arial, sans-serif">

<!-- ROW 1: User Interface -->
<rect x="40" y="120" width="1320" height="100" rx="14" fill="#0F2038" stroke="#1E3A5F" stroke-width="1"/>
<text x="60" y="158" font-size="17" font-weight="700" fill="#29B6F6">Layer 1 —</text>
<text x="60" y="182" font-size="17" font-weight="700" fill="#29B6F6">User Interface</text>

<rect x="310" y="140" width="170" height="58" rx="8" fill="#12283F" stroke="#29B6F6" stroke-width="1.2"/>
<text x="395" y="163" font-size="13" font-weight="700" text-anchor="middle" fill="#EAF3FC">User / Learner</text>
<text x="395" y="180" font-size="10" text-anchor="middle" fill="#93A9C8">Chat participant</text>

<line x1="480" y1="169" x2="510" y2="169" stroke="#7FA8D9" stroke-width="1.5" marker-end="url(#arrowD)"/>
<rect x="515" y="140" width="170" height="58" rx="8" fill="#12283F" stroke="#29B6F6" stroke-width="1.2"/>
<text x="600" y="163" font-size="13" font-weight="700" text-anchor="middle" fill="#EAF3FC">Chat Interface</text>
<text x="600" y="180" font-size="10" text-anchor="middle" fill="#93A9C8">Message thread</text>

<line x1="685" y1="169" x2="715" y2="169" stroke="#7FA8D9" stroke-width="1.5" marker-end="url(#arrowD)"/>
<rect x="720" y="140" width="200" height="58" rx="8" fill="#12283F" stroke="#29B6F6" stroke-width="1.2"/>
<text x="820" y="163" font-size="13" font-weight="700" text-anchor="middle" fill="#EAF3FC">Streamlit App</text>
<text x="820" y="180" font-size="10" text-anchor="middle" fill="#93A9C8">Web front-end</text>

<path d="M948 158 L953 163 L961 152" fill="none" stroke="#2ECC91" stroke-width="2" stroke-linecap="round" stroke-linejoin="round"/>
<text x="968" y="163" font-size="12" font-weight="700" fill="#2ECC91">Grounded retrieval</text>
<path d="M948 180 L953 185 L961 174" fill="none" stroke="#2ECC91" stroke-width="2" stroke-linecap="round" stroke-linejoin="round"/>
<text x="968" y="185" font-size="12" font-weight="700" fill="#2ECC91">Calibrated confidence</text>

<!-- ROW 2: Scope Guard (NEW) -->
<rect x="40" y="235" width="1320" height="100" rx="14" fill="#0F2038" stroke="#1E3A5F" stroke-width="1"/>
<text x="60" y="273" font-size="17" font-weight="700" fill="#2ECC91">Layer 2 —</text>
<text x="60" y="297" font-size="17" font-weight="700" fill="#2ECC91">Scope Guard</text>

<rect x="310" y="255" width="180" height="58" rx="8" fill="#12283F" stroke="#2ECC91" stroke-width="1.2"/>
<text x="400" y="278" font-size="13" font-weight="700" text-anchor="middle" fill="#EAF3FC">User Question</text>
<text x="400" y="295" font-size="10" text-anchor="middle" fill="#93A9C8">Raw input text</text>

<line x1="490" y1="284" x2="520" y2="284" stroke="#7FA8D9" stroke-width="1.5" marker-end="url(#arrowD)"/>
<rect x="525" y="255" width="220" height="58" rx="8" fill="#12283F" stroke="#2ECC91" stroke-width="1.5"/>
<text x="635" y="278" font-size="13" font-weight="700" text-anchor="middle" fill="#EAF3FC">Scope Guard Agent</text>
<text x="635" y="295" font-size="10" text-anchor="middle" fill="#93A9C8">AI/ML topic classifier</text>

<line x1="745" y1="278" x2="775" y2="278" stroke="#7FA8D9" stroke-width="1.5" marker-end="url(#arrowD)"/>
<text x="785" y="272" font-size="12" font-weight="700" fill="#2ECC91">YES &#8594; continue to retrieval</text>
<line x1="745" y1="292" x2="775" y2="292" stroke="#7FA8D9" stroke-width="1.5" marker-end="url(#arrowD)"/>
<text x="785" y="298" font-size="12" font-weight="700" fill="#9FB3CC">NO &#8594; decline, no retrieval call</text>

<!-- ROW 3: Agent Orchestration -->
<rect x="40" y="350" width="1320" height="100" rx="14" fill="#0F2038" stroke="#1E3A5F" stroke-width="1"/>
<text x="60" y="388" font-size="17" font-weight="700" fill="#5B8DEF">Layer 3 —</text>
<text x="60" y="412" font-size="17" font-weight="700" fill="#5B8DEF">Orchestration</text>

<rect x="310" y="370" width="190" height="58" rx="8" fill="#12283F" stroke="#5B8DEF" stroke-width="1.2"/>
<text x="405" y="393" font-size="13" font-weight="700" text-anchor="middle" fill="#EAF3FC">Retrieval Agent</text>
<text x="405" y="410" font-size="10" text-anchor="middle" fill="#93A9C8">Explicit search calls</text>

<line x1="500" y1="399" x2="525" y2="399" stroke="#7FA8D9" stroke-width="1.5" marker-end="url(#arrowD)"/>
<rect x="530" y="370" width="230" height="58" rx="8" fill="#12283F" stroke="#5B8DEF" stroke-width="1.2"/>
<text x="645" y="393" font-size="13" font-weight="700" text-anchor="middle" fill="#EAF3FC">Agno AI Orchestrator</text>
<text x="645" y="410" font-size="10" text-anchor="middle" fill="#93A9C8">Coordinates all agents</text>

<line x1="760" y1="399" x2="785" y2="399" stroke="#7FA8D9" stroke-width="1.5" marker-end="url(#arrowD)"/>
<rect x="790" y="370" width="210" height="58" rx="8" fill="#12283F" stroke="#B076E0" stroke-width="1.2"/>
<text x="895" y="393" font-size="13" font-weight="700" text-anchor="middle" fill="#EAF3FC">Web Research Agent</text>
<text x="895" y="410" font-size="10" text-anchor="middle" fill="#93A9C8">Live search fallback</text>

<rect x="1030" y="370" width="200" height="58" rx="8" fill="#12283F" stroke="#E8A33D" stroke-width="1.2"/>
<text x="1130" y="393" font-size="13" font-weight="700" text-anchor="middle" fill="#EAF3FC">Indexed Textbooks</text>
<text x="1130" y="410" font-size="10" text-anchor="middle" fill="#93A9C8">2 curated source texts</text>
<line x1="1025" y1="399" x2="1000" y2="399" stroke="#7FA8D9" stroke-width="1.5" marker-end="url(#arrowD)"/>

<!-- ROW 4: Retrieval + Reranking -->
<rect x="40" y="465" width="1320" height="100" rx="14" fill="#0F2038" stroke="#1E3A5F" stroke-width="1"/>
<text x="60" y="503" font-size="17" font-weight="700" fill="#E8A33D">Layer 4 —</text>
<text x="60" y="527" font-size="17" font-weight="700" fill="#E8A33D">Retrieval &amp; Rerank</text>

<rect x="310" y="485" width="185" height="58" rx="8" fill="#12283F" stroke="#E8A33D" stroke-width="1.2"/>
<text x="402" y="508" font-size="12" font-weight="700" text-anchor="middle" fill="#EAF3FC">Embedding Generation</text>
<text x="402" y="525" font-size="10" text-anchor="middle" fill="#93A9C8">text-embedding-3-small</text>

<line x1="495" y1="514" x2="515" y2="514" stroke="#7FA8D9" stroke-width="1.5" marker-end="url(#arrowD)"/>
<rect x="520" y="485" width="160" height="58" rx="8" fill="#12283F" stroke="#E8A33D" stroke-width="1.2"/>
<text x="600" y="508" font-size="13" font-weight="700" text-anchor="middle" fill="#EAF3FC">pgvector (Neon)</text>
<text x="600" y="525" font-size="10" text-anchor="middle" fill="#93A9C8">Postgres vector DB</text>

<line x1="680" y1="514" x2="700" y2="514" stroke="#7FA8D9" stroke-width="1.5" marker-end="url(#arrowD)"/>
<rect x="705" y="485" width="150" height="58" rx="8" fill="#12283F" stroke="#E8A33D" stroke-width="1.2"/>
<text x="780" y="508" font-size="13" font-weight="700" text-anchor="middle" fill="#EAF3FC">Similarity Search</text>
<text x="780" y="525" font-size="10" text-anchor="middle" fill="#93A9C8">Cosine similarity</text>

<line x1="855" y1="514" x2="875" y2="514" stroke="#7FA8D9" stroke-width="1.5" marker-end="url(#arrowD)"/>
<rect x="880" y="485" width="180" height="58" rx="8" fill="#12283F" stroke="#B076E0" stroke-width="1.6"/>
<text x="970" y="508" font-size="13" font-weight="700" text-anchor="middle" fill="#EAF3FC">Cohere Reranker</text>
<text x="970" y="525" font-size="10" text-anchor="middle" fill="#93A9C8">rerank-v3.5 rescoring</text>

<line x1="1060" y1="514" x2="1080" y2="514" stroke="#7FA8D9" stroke-width="1.5" marker-end="url(#arrowD)"/>
<rect x="1085" y="485" width="170" height="58" rx="8" fill="#12283F" stroke="#B076E0" stroke-width="1.2"/>
<text x="1170" y="508" font-size="13" font-weight="700" text-anchor="middle" fill="#EAF3FC">Reranked Chunks</text>
<text x="1170" y="525" font-size="10" text-anchor="middle" fill="#93A9C8">Reordered by relevance</text>

<!-- ROW 5: Threshold & Routing -->
<rect x="40" y="580" width="1320" height="100" rx="14" fill="#0F2038" stroke="#1E3A5F" stroke-width="1"/>
<text x="60" y="618" font-size="17" font-weight="700" fill="#E8A33D">Layer 5 —</text>
<text x="60" y="642" font-size="17" font-weight="700" fill="#E8A33D">Threshold Routing</text>

<rect x="310" y="600" width="210" height="58" rx="8" fill="#12283F" stroke="#E8A33D" stroke-width="1.8"/>
<text x="415" y="623" font-size="13" font-weight="700" text-anchor="middle" fill="#EAF3FC">Threshold Check</text>
<text x="415" y="640" font-size="10" text-anchor="middle" fill="#93A9C8">Reranked score &#8805; 0.3?</text>

<line x1="520" y1="629" x2="550" y2="629" stroke="#2ECC91" stroke-width="1.5" marker-end="url(#arrowD)"/>
<text x="555" y="614" font-size="11" font-weight="700" fill="#2ECC91">YES</text>
<rect x="555" y="600" width="180" height="58" rx="8" fill="#12283F" stroke="#2ECC91" stroke-width="1.2"/>
<text x="645" y="623" font-size="12" font-weight="700" text-anchor="middle" fill="#EAF3FC">Citation Validation</text>
<text x="645" y="640" font-size="10" text-anchor="middle" fill="#93A9C8">Enforces citations</text>

<line x1="735" y1="629" x2="765" y2="629" stroke="#7FA8D9" stroke-width="1.5" marker-end="url(#arrowD)"/>
<rect x="770" y="600" width="220" height="58" rx="8" fill="#12283F" stroke="#2ECC91" stroke-width="1.2"/>
<text x="880" y="623" font-size="12" font-weight="700" text-anchor="middle" fill="#EAF3FC">LLM Response Generation</text>
<text x="880" y="640" font-size="10" text-anchor="middle" fill="#93A9C8">GPT-4o-mini, grounded</text>
<path d="M760 664 L765 669 L773 658" fill="none" stroke="#2ECC91" stroke-width="2" stroke-linecap="round" stroke-linejoin="round"/>
<text x="780" y="669" font-size="11" font-weight="700" fill="#2ECC91">Prevents unsupported answers</text>

<text x="415" y="670" font-size="11" font-weight="700" fill="#9FB3CC">NO &#8595; web fallback</text>

<!-- ROW 6: Fallback + Final Response -->
<rect x="40" y="695" width="1320" height="100" rx="14" fill="#0F2038" stroke="#1E3A5F" stroke-width="1"/>
<text x="60" y="733" font-size="17" font-weight="700" fill="#B076E0">Layer 6 —</text>
<text x="60" y="757" font-size="17" font-weight="700" fill="#B076E0">Fallback &amp; Response</text>

<rect x="310" y="715" width="190" height="58" rx="8" fill="#12283F" stroke="#B076E0" stroke-width="1.2"/>
<text x="405" y="738" font-size="12" font-weight="700" text-anchor="middle" fill="#EAF3FC">Web Research Agent</text>
<text x="405" y="755" font-size="10" text-anchor="middle" fill="#93A9C8">Triggered on low score</text>

<line x1="500" y1="744" x2="520" y2="744" stroke="#7FA8D9" stroke-width="1.5" marker-end="url(#arrowD)"/>
<rect x="525" y="715" width="140" height="58" rx="8" fill="#12283F" stroke="#B076E0" stroke-width="1.2"/>
<text x="595" y="738" font-size="12" font-weight="700" text-anchor="middle" fill="#EAF3FC">Search Tool</text>
<text x="595" y="755" font-size="10" text-anchor="middle" fill="#93A9C8">Web query</text>

<line x1="665" y1="744" x2="685" y2="744" stroke="#7FA8D9" stroke-width="1.5" marker-end="url(#arrowD)"/>
<rect x="690" y="715" width="200" height="58" rx="8" fill="#12283F" stroke="#B076E0" stroke-width="1.2"/>
<text x="790" y="738" font-size="12" font-weight="700" text-anchor="middle" fill="#EAF3FC">Trusted Sources</text>
<text x="790" y="755" font-size="10" text-anchor="middle" fill="#93A9C8">External web results</text>

<line x1="890" y1="744" x2="910" y2="744" stroke="#7FA8D9" stroke-width="1.5" marker-end="url(#arrowD)"/>
<rect x="915" y="715" width="180" height="58" rx="8" fill="#12283F" stroke="#B076E0" stroke-width="1.2"/>
<text x="1005" y="738" font-size="12" font-weight="700" text-anchor="middle" fill="#EAF3FC">Summarized Response</text>
<text x="1005" y="755" font-size="10" text-anchor="middle" fill="#93A9C8">Synthesized answer</text>

<line x1="1095" y1="744" x2="1115" y2="744" stroke="#7FA8D9" stroke-width="1.5" marker-end="url(#arrowD)"/>
<rect x="1120" y="715" width="190" height="58" rx="8" fill="#12283F" stroke="#9FB3CC" stroke-width="1.4"/>
<text x="1215" y="738" font-size="13" font-weight="700" text-anchor="middle" fill="#EAF3FC">Final Response</text>
<text x="1215" y="755" font-size="10" text-anchor="middle" fill="#93A9C8">Answer + citations</text>

<!-- connectors between row5/row6 -->
<path d="M415 658 L415 675 L410 690 L410 712" fill="none" stroke="#7FA8D9" stroke-width="1.5" marker-end="url(#arrowD)"/>
<path d="M880 658 L880 685 L1215 685 L1215 712" fill="none" stroke="#2ECC91" stroke-width="1.5" marker-end="url(#arrowD)"/>

</g>

<!-- ===== TECH STACK FOOTER ===== -->
<text x="60" y="815" font-family="Arial, sans-serif" font-size="16" font-weight="700" fill="#EAF3FC">Technology Stack:</text>

<g font-family="Arial, sans-serif" font-size="12" font-weight="600" fill="#EAF3FC">
<rect x="60" y="825" width="76" height="34" rx="17" fill="#16304F" stroke="#2E4A73"/><text x="98" y="847" text-anchor="middle">Python</text>
<rect x="151" y="825" width="84" height="34" rx="17" fill="#16304F" stroke="#2E4A73"/><text x="193" y="847" text-anchor="middle">Agno AI</text>
<rect x="250" y="825" width="100" height="34" rx="17" fill="#16304F" stroke="#2E4A73"/><text x="300" y="847" text-anchor="middle">Streamlit</text>
<rect x="365" y="825" width="108" height="34" rx="17" fill="#16304F" stroke="#2E4A73"/><text x="419" y="847" text-anchor="middle">PostgreSQL</text>
<rect x="488" y="825" width="92" height="34" rx="17" fill="#16304F" stroke="#2E4A73"/><text x="534" y="847" text-anchor="middle">pgvector</text>
<rect x="595" y="825" width="60" height="34" rx="17" fill="#16304F" stroke="#2E4A73"/><text x="625" y="847" text-anchor="middle">Neon</text>

<rect x="60" y="870" width="164" height="34" rx="17" fill="#16304F" stroke="#2E4A73"/><text x="142" y="892" text-anchor="middle">OpenAI Embeddings</text>
<rect x="239" y="870" width="132" height="34" rx="17" fill="#16304F" stroke="#B076E0"/><text x="305" y="892" text-anchor="middle">Cohere Rerank</text>
<rect x="386" y="870" width="68" height="34" rx="17" fill="#16304F" stroke="#B076E0"/><text x="420" y="892" text-anchor="middle">RAGAS</text>
<rect x="469" y="870" width="52" height="34" rx="17" fill="#16304F" stroke="#2E4A73"/><text x="495" y="892" text-anchor="middle">RAG</text>
<rect x="536" y="870" width="220" height="34" rx="17" fill="#16304F" stroke="#2E4A73"/><text x="646" y="892" text-anchor="middle">Multi-Agent Orchestration</text>
<rect x="771" y="870" width="124" height="34" rx="17" fill="#16304F" stroke="#2E4A73"/><text x="833" y="892" text-anchor="middle">Tool Calling</text>
</g>

</svg>
